<svg width="478" height="425" viewBox="0 0 478 425" fill="none" xmlns="http://www.w3.org/2000/svg">
<path d="M219.449 137.099C206.074 137.099 191.229 148.369 183.13 157.94C174.433 168.218 170.209 180.4 165.702 192.918C163.253 199.721 158.024 208.97 158.024 216.074C158.024 238.605 160.343 260.501 181.059 273.111C199.251 284.185 219.678 283.308 240.533 281.764C256.839 280.556 276.145 271.091 290.501 263.361C299.281 258.633 305.249 250.414 311.098 242.398C319.695 230.617 324.643 213.485 329.135 199.743C332.997 187.931 332.479 182.973 323.407 175.246C309.837 163.686 294.347 152.604 282.214 139.537C275.979 132.823 259.113 138.117 250.649 136.612C235.978 134.004 213.879 131.43 199.705 137.099" stroke="black" stroke-width="10" stroke-linecap="round"/>
<path d="M204.093 244.593C214.758 244.593 220.937 233.156 233.464 235.94C239.531 237.288 252.355 237.902 252.355 246.786" stroke="black" stroke-width="10" stroke-linecap="round"/>
<path d="M217.255 180.974C236.469 178.839 212.867 158.348 212.867 173.296C212.867 191.43 224.491 176.914 219.448 174.392" stroke="black" stroke-width="10" stroke-linecap="round"/>
<path d="M265.517 174.393C267.126 188.874 291.06 177.371 279.776 171.103C270.618 166.015 256.689 177.657 267.711 183.168" stroke="black" stroke-width="10" stroke-linecap="round"/>
<path d="M199.705 132.712C199.705 113.009 199.705 93.3063 199.705 73.6034C199.705 63.5803 197.479 47.5975 188.249 41.5506C178.26 35.006 162.665 36.1881 151.322 36.1881C139.662 36.1881 128.003 36.1881 116.344 36.1881C102.347 36.1881 99.5043 47.2114 97.0876 59.8316C90.1388 96.1201 109.68 129.256 139.987 147.581C141.091 148.248 154.049 156.858 153.637 150.262C153.295 144.789 116.735 137.474 112.566 136.125C102.447 132.851 94.1075 132.712 83.4377 132.712C63.2274 132.712 47.2813 152.02 35.2976 166.471C26.575 176.99 14.7206 185.958 11.0446 199.743C6.93435 215.156 1.78897 240.607 9.82591 255.074C17.5287 268.939 41.2324 264.336 54.6755 264.336C68.5463 264.336 79.2596 258.467 91.7252 253.367C93.0328 252.832 111.712 230.815 111.712 234.721C111.712 241.822 87.0159 256.743 81.7315 259.949C75.5643 263.689 66.0645 268.503 61.5004 274.208C43.7902 296.346 69.6553 324.732 80.7565 342.823C93.0752 362.898 110.074 359.352 121.219 340.629C128.302 328.73 136.087 314.87 136.087 300.533C136.087 295.476 136.05 315.281 136.087 317.961C136.496 347.385 142.852 379.101 150.225 407.538C152.138 414.918 155.64 417.897 163.631 417.897C172.126 417.897 191.984 421.74 198.73 415.703C209.315 406.233 204.778 376.07 204.093 363.054C203.673 355.08 202.141 347.146 201.899 338.923C201.827 336.467 199.705 332.701 199.705 337.217C199.705 344.818 204.248 351.691 208.602 357.57C221.849 375.453 243.486 385.725 260.642 399.372C269.009 406.028 280.299 414.246 290.867 415.703C299.646 416.914 318.301 421.773 323.529 411.316C329.911 398.552 328.871 378.026 329.136 364.029C329.351 352.619 322.598 349.935 314.754 342.092C310.46 337.797 297.767 330.148 299.398 330.148C347.434 330.148 397.595 333.505 441.138 310.283C455.079 302.847 464.424 291.814 471.241 277.498C475.125 269.342 467.415 267.558 461.491 265.311C441.365 257.677 421.874 257.755 400.676 257.755C393.359 257.755 391.585 257.705 386.66 262.63C380.804 268.486 395.848 248.848 400.554 242.033C419.934 213.965 440.418 186.48 451.984 154.162C453.655 149.495 461.326 135.634 457.591 130.031C448.559 116.484 423.274 107.431 407.988 114.309C386.081 124.167 373.382 150.962 360.335 169.518C351.662 181.854 359.776 176.183 363.138 168.787C373.829 145.268 379.591 114.421 379.591 88.8376C379.591 78.7563 370.468 82.2564 362.163 82.2564C352.146 82.2564 340.618 80.5221 330.842 82.7439C316.524 85.9981 306.755 107.977 303.298 120.769C300.709 130.35 306.871 116.769 307.32 112.725C308.94 98.1496 315.714 83.8567 315.973 69.0941C316.056 64.3918 319.102 22.1959 314.754 20.9539C301.063 17.0421 283.14 19.9219 268.808 17.4195C258.491 15.6182 218.34 -3.85479 210.674 9.86335C206.405 17.5034 205.678 26.8334 201.412 34.7256C195.109 46.3853 186.223 56.5383 174.843 63.366C168.4 67.2318 175.471 67.5971 179.962 69.0941" stroke="black" stroke-width="10" stroke-linecap="round"/>
<path d="M186.543 156.843C193.904 156.843 208.108 159.446 215.061 156.356C221.982 153.28 228.788 147.692 234.805 143.681" stroke="black" stroke-width="10" stroke-linecap="round"/>
<path d="M267.711 143.681C275.17 144.509 278.53 154.5 283.067 159.037C287.807 163.776 292.021 163.424 298.423 163.424" stroke="black" stroke-width="10" stroke-linecap="round"/>
<path d="M263.324 196.33C263.324 205.378 262.699 205.19 269.905 209.005C271.994 210.111 280.544 215.102 280.874 209.493C281.373 201.003 270.625 194.137 263.324 194.137" stroke="black" stroke-width="5" stroke-linecap="round"/>
</svg>
