<svg width="788" height="1287" viewBox="0 0 788 1287" fill="none" xmlns="http://www.w3.org/2000/svg">
<path d="M540.074 1208.75C530.576 1216.92 464.966 1257.47 464.966 1257.47C464.966 1257.47 518.792 1140.87 524.324 1143.94C526.522 1145.17 527.321 1147.06 527.484 1148.9C530.397 1132.67 539.2 1085.61 543.86 1082.41C549.498 1078.54 548.513 1107.36 548.513 1107.36C548.513 1107.36 555.11 1035.74 561.543 1028.57C567.975 1021.41 577.43 1022.52 577.43 1022.52C577.43 1022.52 571.125 969.289 577.293 963.222C583.461 957.155 597.484 1001.79 597.484 1001.79C597.484 1001.79 598.035 978.68 598.046 968.224C598.056 957.768 614.251 973.873 613.404 964.372L627.185 924.115C627.185 924.115 627.688 915.521 635.465 914.49C643.242 913.459 618.666 973.775 622.891 966.659C627.116 959.542 639.515 949.748 644.258 950.891C649.002 952.034 620.853 994.639 620.609 1007.36C620.365 1020.09 651.41 981.086 659.06 975.376C666.71 969.667 595.287 1056.46 588.256 1068.71C581.226 1080.96 620.037 1051.38 620.037 1051.38C614.765 1073.51 552.648 1111.12 556.518 1109.29C560.388 1107.45 590.803 1091.98 584.037 1103.14C577.271 1114.29 510.385 1178.35 514.927 1182.93C519.469 1187.51 558.439 1163.79 555.925 1174.22C553.41 1184.66 505.683 1200.46 519.321 1203.75C532.958 1207.04 549.571 1200.58 540.074 1208.75Z" fill="#3B5109"/>
<path d="M464.966 1257.47C464.966 1257.47 530.576 1216.92 540.074 1208.75C549.571 1200.58 532.958 1207.04 519.321 1203.75C505.683 1200.46 553.41 1184.66 555.925 1174.22C558.439 1163.79 519.469 1187.51 514.927 1182.93C510.385 1178.35 577.271 1114.29 584.037 1103.14C590.803 1091.98 560.388 1107.45 556.518 1109.29C552.648 1111.12 614.765 1073.51 620.037 1051.38C620.037 1051.38 581.226 1080.96 588.256 1068.71C595.287 1056.46 666.71 969.667 659.06 975.376C651.41 981.086 620.365 1020.09 620.609 1007.36C620.853 994.639 649.002 952.034 644.258 950.891C639.515 949.748 627.116 959.542 622.891 966.659C618.666 973.775 643.242 913.459 635.465 914.49C627.688 915.521 627.185 924.115 627.185 924.115L613.404 964.372C614.251 973.873 598.056 957.768 598.046 968.224C598.035 978.68 597.484 1001.79 597.484 1001.79C597.484 1001.79 583.461 957.155 577.293 963.222C571.125 969.289 577.43 1022.52 577.43 1022.52C577.43 1022.52 567.975 1021.41 561.543 1028.57C555.11 1035.74 548.513 1107.36 548.513 1107.36C548.513 1107.36 549.498 1078.54 543.86 1082.41C538.222 1086.28 526.521 1154.35 526.521 1154.35C526.521 1154.35 529.857 1147.02 524.324 1143.94C518.792 1140.87 464.966 1257.47 464.966 1257.47Z" stroke="#3B5109" stroke-width="4"/>
<path d="M257.634 1161.21C262.422 1169.64 337.879 1266.02 337.879 1266.02C337.879 1266.02 281.749 1099.36 278.341 1100.1C274.933 1100.85 273.14 1109.28 270.077 1110C267.013 1110.72 269.308 1081.25 267.603 1076.99C265.898 1072.72 257.869 1081.14 255.984 1083.72C254.1 1086.3 258.525 1020.55 256.549 1017.28C254.572 1014.01 249.014 1046.16 249.014 1046.16L243.74 975.771C243.74 975.771 243.209 954.819 241.958 951.983C240.706 949.148 233.086 921.405 230.711 922.071C228.336 922.737 234.759 943.735 232.311 943.431C229.864 943.126 217.678 928.417 216.137 930.973C214.597 933.53 238.396 992.281 236.167 994.889C233.938 997.497 216.964 974.36 214.807 977.938C212.651 981.517 218.943 993.695 221.593 1003.79C221.593 1003.79 238.506 1072.33 234.717 1072.62C230.928 1072.9 224.503 1042.63 219.245 1037.16C213.986 1031.7 196.039 1032.56 196.512 1038.87C196.984 1045.18 218.545 1069.44 217.15 1073.93C215.756 1078.43 198.73 1068.48 199.24 1075.28C199.749 1082.07 273.277 1152.72 273.823 1160C274.369 1167.28 252.846 1152.79 257.634 1161.21Z" fill="#3B5109" stroke="#3B5109" stroke-width="4"/>
<path d="M340.103 1266.73C326.76 1012.82 337.961 1006.14 349.368 912.354C360.776 818.567 357.656 762.627 334.9 635.652C317.702 539.696 235 437.085 235 437.085" stroke="#3B5109" stroke-width="9"/>
<path d="M338.285 1259C341.656 1244.6 429.922 994.5 448.881 948.5C467.84 902.5 547.826 748.22 526.789 621.5C510.891 525.737 418.826 137 418.826 137" stroke="#3B5109" stroke-width="11"/>
<path d="M461.847 1263C465.05 1251.25 542.942 1017.79 560.963 980.25C578.984 942.713 742.148 813.554 722.151 710.148C707.04 632.004 571.976 509 571.976 509" stroke="#3B5109" stroke-width="9"/>
<path d="M331.677 270.692C336.626 261.65 365.525 224.906 395.649 195.828C425.772 166.749 353.103 268.443 336.486 297.321C319.868 326.2 326.729 279.734 331.677 270.692Z" fill="white" stroke="#E3E0E0"/>
<path d="M347.727 288.462C351.727 278.962 375.727 237.962 398.234 200.8C420.742 163.638 386.227 269.462 355.227 303.962C324.227 338.462 343.727 297.962 347.727 288.462Z" fill="white" stroke="#E3E0E0"/>
<path d="M491.194 239.748C484.374 232.019 447.543 209.167 418.543 172.762C389.543 136.358 438.331 239.849 478.712 262.667C519.093 285.484 498.014 247.478 491.194 239.748Z" fill="white" stroke="#E3E0E0"/>
<path d="M500.402 15.1257C494.39 24.3808 470.553 89.7488 443.372 126.222C416.191 162.696 472.702 131.848 497.814 58.3551C522.925 -15.1378 506.414 5.87069 500.402 15.1257Z" fill="white" stroke="#E3E0E0"/>
<path d="M488.431 23.944C485.094 34.4635 449.702 94.3684 438.763 138.521C427.825 182.674 415.803 119.425 456.665 53.3782C497.527 -12.6681 491.769 13.4244 488.431 23.944Z" fill="white" stroke="#E3E0E0"/>
<path d="M417.555 166.856C406.532 167.395 338.047 155.108 292.851 160.248C247.654 165.388 302.745 132.07 378.893 147.344C455.041 162.618 428.578 166.317 417.555 166.856Z" fill="white" stroke="#E3E0E0"/>
<path d="M398.577 296.689C397.43 287.492 397.566 221.423 405.71 196.559C413.853 171.694 423.947 302.001 416.21 316.139C408.473 330.278 399.724 305.885 398.577 296.689Z" fill="white" stroke="#E3E0E0"/>
<path d="M354.955 46.648C357.801 55.4681 385.836 115.294 403.722 134.39C421.607 153.486 375.705 31.115 362.719 21.569C349.734 12.0229 352.108 37.8279 354.955 46.648Z" fill="white" stroke="#E3E0E0"/>
<path d="M306.412 232.576C315.253 229.794 375.279 202.19 394.503 184.442C413.728 166.694 291.029 211.715 281.39 224.631C271.751 237.548 297.572 235.359 306.412 232.576Z" fill="white" stroke="#E3E0E0"/>
<path d="M546.886 180.806C537.846 182.848 472.081 189.188 446.539 183.52C420.996 177.852 549.686 155.038 564.515 161.352C579.343 167.666 555.926 178.763 546.886 180.806Z" fill="white" stroke="#E3E0E0"/>
<path d="M334.448 86.335C340.595 93.2715 390.283 136.817 414.328 147.131C438.374 157.444 347.221 63.7804 331.496 60.248C315.771 56.7156 328.302 79.3984 334.448 86.335Z" fill="white" stroke="#E3E0E0"/>
<path d="M544.174 222.665C535.074 220.908 472.294 200.322 451.172 184.881C430.051 169.439 557.08 200.187 568.128 211.921C579.176 223.655 553.274 224.422 544.174 222.665Z" fill="white" stroke="#E3E0E0"/>
<path d="M291.887 164.906C305.154 163.645 392.501 163.639 424.676 164.906C456.85 166.173 271.13 177.199 253.724 177.526C236.318 177.853 278.619 166.167 291.887 164.906Z" fill="white" stroke="#E3E0E0"/>
<path d="M341.844 118.748C351.322 124.804 388.642 156.459 418.844 161.248C449.045 166.037 300.281 77.2717 281.844 77.7483C263.406 78.2248 332.365 112.693 341.844 118.748Z" fill="white" stroke="#E3E0E0"/>
<path d="M496.677 234.696C488.587 229.604 450.697 214.768 436.119 188.878C421.54 162.989 543.679 247.073 549.954 265.144C556.228 283.214 504.768 239.787 496.677 234.696Z" fill="white" stroke="#E3E0E0"/>
<path d="M385.015 46.5337C386.014 56.6058 401.356 126.632 415.02 150.733C428.683 174.835 408.528 33.8377 397.73 20.9981C386.931 8.15852 384.016 36.4615 385.015 46.5337Z" fill="white" stroke="#E3E0E0"/>
<path d="M306.514 202.516C316.594 201.59 386.729 186.752 410.928 173.262C435.127 159.772 293.988 178.912 281.071 189.618C268.154 200.323 296.435 203.443 306.514 202.516Z" fill="white" stroke="#E3E0E0"/>
<path d="M552.278 170.122C542.306 171.855 470.728 175.815 443.849 169.1C416.97 162.384 558.218 144.068 573.479 151.036C588.74 158.005 562.25 168.389 552.278 170.122Z" fill="white" stroke="#E3E0E0"/>
<path d="M349.706 240.882C357.606 234.729 408.663 187.077 422.372 165.812C436.081 144.547 328.332 234.263 322.651 247.634C316.969 261.005 341.805 247.035 349.706 240.882Z" fill="white" stroke="#E3E0E0"/>
<path d="M428.16 263.128C423.457 252.246 408.887 163.061 408.887 163.061C408.163 161.114 426.543 206.472 433.965 221.359C441.387 236.247 475.281 289.242 466.307 299.068C457.334 308.894 432.863 274.011 428.16 263.128Z" fill="white" stroke="#E3E0E0"/>
<path d="M497.998 78.1819C491.101 82.7302 455.034 134.134 455.034 134.134C453.889 134.993 481.708 115.564 491.891 109.724C502.074 103.884 543.984 85.982 540.196 76.7673C536.407 67.5526 504.894 73.6335 497.998 78.1819Z" fill="white" stroke="#E3E0E0"/>
<path d="M500.813 102.998C492.869 105.268 443.041 143.482 443.041 143.482C441.691 143.957 474.057 133.77 485.523 131.255C496.989 128.739 542.34 124.237 541.491 114.31C540.642 104.383 508.756 100.729 500.813 102.998Z" fill="white" stroke="#E3E0E0"/>
<path d="M344.5 143.5C352.559 145.317 414.037 146.946 414.037 146.946C415.45 147.176 382.162 140.596 370.894 137.306C359.626 134.016 288.014 107.881 284 117C279.986 126.119 336.441 141.683 344.5 143.5Z" fill="white" stroke="#E3E0E0"/>
<path d="M488.581 149.323C480.522 151.14 419.044 152.769 419.044 152.769C417.631 152.999 450.918 146.419 462.187 143.129C473.455 139.839 545.066 113.704 549.081 122.823C553.095 131.941 496.64 147.506 488.581 149.323Z" fill="white" stroke="#E3E0E0"/>
<path d="M347.42 223.549C354.697 219.638 399.879 193.523 399.879 193.523C401.096 192.771 363.586 201.147 352.92 206.049C342.254 210.952 306.966 233.497 309.912 243.014C312.858 252.532 340.143 227.46 347.42 223.549Z" fill="white" stroke="#E3E0E0"/>
<path d="M420.053 78.6961C419.632 86.9467 418.587 139.122 418.587 139.122C418.6 140.554 430.852 104.124 432.179 92.4608C433.506 80.7973 432.484 38.9346 422.815 36.5285C413.147 34.1225 420.474 70.4454 420.053 78.6961Z" fill="white" stroke="#E3E0E0"/>
<path d="M508.091 150.864C500.07 152.847 449.046 163.795 449.046 163.795C447.638 164.054 481.073 145.098 492.271 141.578C503.47 138.057 544.763 131.1 548.963 140.134C553.164 149.168 516.111 148.882 508.091 150.864Z" fill="white" stroke="#E3E0E0"/>
<path d="M399.74 127.126C421.506 111.301 449.549 113.752 462.563 131.653C475.578 149.553 469.261 176.985 447.495 192.81C425.728 208.635 397.686 206.184 384.671 188.283C371.657 170.383 377.973 142.951 399.74 127.126Z" fill="#E2D201" stroke="#BDB43A" stroke-width="4"/>
<path d="M544.047 638.239C546.985 628.358 552.733 581.966 552.175 540.101C551.618 498.236 530.56 621.439 521.751 653.572C512.942 685.704 541.109 648.119 544.047 638.239Z" fill="white" stroke="#E3E0E0"/>
<path d="M527.365 604.952C531.295 595.423 543.515 549.513 554.06 507.366C564.605 465.219 513.753 564.234 511.077 610.538C508.401 656.842 523.434 614.481 527.365 604.952Z" fill="white" stroke="#E3E0E0"/>
<path d="M453.717 503.17C464.007 502.572 506.167 512.638 552.437 507.603C598.707 502.568 490.863 540.783 446.229 528.17C401.596 515.557 443.426 503.769 453.717 503.17Z" fill="white" stroke="#E3E0E0"/>
<path d="M607.159 352.744C604.819 363.529 575.179 426.479 568.413 471.46C561.647 516.442 543.769 454.592 578.281 385.017C612.794 315.442 609.499 341.958 607.159 352.744Z" fill="white" stroke="#E3E0E0"/>
<path d="M598.957 384.634C593.836 394.41 576.211 461.72 552.557 500.573C528.902 539.426 582.283 503.434 600.419 427.916C618.554 352.399 604.078 374.858 598.957 384.634Z" fill="white" stroke="#E3E0E0"/>
<path d="M557.327 504.147C564.704 512.355 621.647 552.34 649.816 588.055C677.986 623.771 662.861 561.191 598.403 517.866C533.945 474.542 549.949 495.939 557.327 504.147Z" fill="white" stroke="#E3E0E0"/>
<path d="M478.485 609.031C485.824 603.371 532.648 556.759 544.572 533.471C556.497 510.182 456.852 594.755 452.258 610.203C447.664 625.651 471.147 614.692 478.485 609.031Z" fill="white" stroke="#E3E0E0"/>
<path d="M686.767 463.973C678.5 468.162 616.276 490.371 590.122 491.114C563.969 491.856 683.19 438.301 699.111 440.802C715.033 443.303 695.035 459.784 686.767 463.973Z" fill="white" stroke="#E3E0E0"/>
<path d="M588.903 629.346C584.655 621.109 561.998 559.046 561.067 532.899C560.136 506.751 614.548 625.583 612.162 641.523C609.776 657.462 593.151 637.583 588.903 629.346Z" fill="white" stroke="#E3E0E0"/>
<path d="M456.367 422.122C461.281 429.98 503.079 481.147 525.087 495.296C547.095 509.445 472.695 401.992 457.771 395.906C442.847 389.821 451.453 414.264 456.367 422.122Z" fill="white" stroke="#E3E0E0"/>
<path d="M689.757 510.719C680.504 511.237 614.597 506.609 590.344 496.793C566.091 486.978 696.783 485.769 710.362 494.449C723.942 503.13 699.011 510.2 689.757 510.719Z" fill="white" stroke="#E3E0E0"/>
<path d="M428.549 453.518C436.204 458.744 495.022 488.835 520.859 492.963C546.695 497.091 435.426 428.527 419.315 428.943C403.203 429.358 420.895 448.293 428.549 453.518Z" fill="white" stroke="#E3E0E0"/>
<path d="M647.187 592.019C638.741 581.709 577.25 519.674 553.699 497.717C530.147 475.76 653.07 615.414 665.092 628.006C677.115 640.597 655.632 602.329 647.187 592.019Z" fill="white" stroke="#E3E0E0"/>
<path d="M644.795 524.045C633.821 521.577 585.066 517.36 560.402 499.284C535.738 481.207 703.512 524.361 716.154 537.789C728.796 551.218 655.768 526.513 644.795 524.045Z" fill="white" stroke="#E3E0E0"/>
<path d="M453.444 495.719C462.756 497.88 499.968 514.342 528.618 506.468C557.268 498.595 411.563 471.054 394.313 479.32C377.063 487.587 444.133 493.557 453.444 495.719Z" fill="white" stroke="#E3E0E0"/>
<path d="M665.685 442.545C657.829 448.927 597.297 487.332 570.562 494.597C543.826 501.861 658.147 416.908 674.868 415.537C691.588 414.166 673.541 436.163 665.685 442.545Z" fill="white" stroke="#E3E0E0"/>
<path d="M610.179 608.11C603.741 600.3 564.9 540.047 557.443 513.364C549.986 486.681 635.761 600.388 637.252 617.098C638.743 633.808 616.617 615.92 610.179 608.11Z" fill="white" stroke="#E3E0E0"/>
<path d="M460.158 410.771C465.948 419.073 513.529 472.693 537.222 487.053C560.914 501.414 474.478 388.21 458.785 382.278C443.092 376.345 454.368 402.469 460.158 410.771Z" fill="white" stroke="#E3E0E0"/>
<path d="M552.525 604.448C551.333 594.506 549.227 524.698 554.677 499.991C560.127 475.284 572.272 614.967 566.777 628.415C561.282 641.864 553.717 614.39 552.525 604.448Z" fill="white" stroke="#E3E0E0"/>
<path d="M481.491 564.395C492.531 560.073 566.125 507.631 566.125 507.631C568.017 506.775 522.865 525.655 507.067 530.865C491.269 536.076 429.771 549.317 429.111 562.607C428.451 575.897 470.451 568.717 481.491 564.395Z" fill="white" stroke="#E3E0E0"/>
<path d="M563.666 384.59C565.291 392.69 554.178 454.493 554.178 454.493C554.374 455.911 548.587 422.477 545.565 411.134C542.543 399.79 525.75 357.423 534.961 353.626C544.173 349.83 562.04 376.49 563.666 384.59Z" fill="white" stroke="#E3E0E0"/>
<path d="M544.06 400.062C548.041 407.301 555.984 469.591 555.984 469.591C556.596 470.885 541.044 440.728 534.758 430.814C528.472 420.9 499.74 385.523 507.388 379.138C515.036 372.752 540.079 392.823 544.06 400.062Z" fill="white" stroke="#E3E0E0"/>
<path d="M625.347 539.585C618.382 535.141 573.943 492.628 573.943 492.628C572.785 491.787 600.893 510.794 611.163 516.48C621.433 522.166 690.41 554.622 686.76 563.893C683.111 573.164 632.311 544.029 625.347 539.585Z" fill="white" stroke="#E3E0E0"/>
<path d="M519.774 441.363C524.157 448.366 566.283 493.172 566.283 493.172C567.114 494.337 548.351 466.065 542.755 455.747C537.158 445.428 505.301 376.172 495.999 379.741C486.697 383.31 515.391 434.361 519.774 441.363Z" fill="white" stroke="#E3E0E0"/>
<path d="M566.443 593.869C564.097 585.947 550.833 535.475 550.833 535.475C550.51 534.08 570.971 566.616 574.999 577.642C579.027 588.668 587.86 629.601 579.026 634.209C570.193 638.818 568.789 601.79 566.443 593.869Z" fill="white" stroke="#E3E0E0"/>
<path d="M618.176 440.305C612.613 446.413 576.296 483.889 576.296 483.889C575.27 484.887 592.515 450.539 599.864 441.385C607.213 432.231 637.662 403.484 646.177 408.656C654.693 413.828 623.739 434.198 618.176 440.305Z" fill="white" stroke="#E3E0E0"/>
<path d="M504.943 428.593C509.182 435.684 537.33 479.628 537.33 479.628C538.137 480.81 528.06 443.721 522.676 433.289C517.292 422.858 493.161 388.635 483.788 392.012C474.414 395.39 500.705 421.502 504.943 428.593Z" fill="white" stroke="#E3E0E0"/>
<path d="M564.836 451.466C540.704 447.261 518.361 461.694 514.604 483.258C510.846 504.822 526.99 525.962 551.121 530.167C575.252 534.372 597.594 519.939 601.352 498.375C605.11 476.811 588.966 455.672 564.836 451.466Z" fill="#E2D201" stroke="#BDB43A" stroke-width="4"/>
<path d="M211.488 327.024C214.426 336.904 220.174 383.296 219.616 425.161C219.059 467.026 198.001 343.823 189.192 311.69C180.383 279.558 208.55 317.143 211.488 327.024Z" fill="white" stroke="#E3E0E0"/>
<path d="M194.806 360.311C198.736 369.84 210.956 415.749 221.501 457.896C232.046 500.044 181.193 401.029 178.518 354.724C175.842 308.42 190.875 350.782 194.806 360.311Z" fill="white" stroke="#E3E0E0"/>
<path d="M121.158 462.092C131.448 462.69 173.607 452.624 219.877 457.659C266.147 462.694 158.304 424.479 113.67 437.092C69.0365 449.705 110.867 461.494 121.158 462.092Z" fill="white" stroke="#E3E0E0"/>
<path d="M274.6 612.518C272.26 601.733 242.62 538.784 235.854 493.802C229.088 448.82 211.21 510.67 245.722 580.245C280.235 649.82 276.94 623.304 274.6 612.518Z" fill="white" stroke="#E3E0E0"/>
<path d="M266.398 580.628C261.277 570.852 243.652 503.543 219.998 464.689C196.343 425.836 249.724 461.828 267.86 537.346C285.995 612.863 271.519 590.404 266.398 580.628Z" fill="white" stroke="#E3E0E0"/>
<path d="M224.768 461.115C232.145 452.907 289.088 412.922 317.257 377.207C345.427 341.491 330.302 404.071 265.844 447.396C201.386 490.72 217.39 469.323 224.768 461.115Z" fill="white" stroke="#E3E0E0"/>
<path d="M145.926 356.231C153.265 361.891 200.089 408.503 212.013 431.791C223.938 455.08 124.293 370.507 119.699 355.059C115.105 339.611 138.588 350.57 145.926 356.231Z" fill="white" stroke="#E3E0E0"/>
<path d="M354.208 501.289C345.941 497.101 283.716 474.891 257.563 474.148C231.41 473.406 350.63 526.961 366.552 524.46C382.473 521.959 362.476 505.478 354.208 501.289Z" fill="white" stroke="#E3E0E0"/>
<path d="M256.344 335.916C252.096 344.153 229.439 406.216 228.508 432.363C227.577 458.511 281.989 339.679 279.603 323.739C277.217 307.8 260.592 327.679 256.344 335.916Z" fill="white" stroke="#E3E0E0"/>
<path d="M123.808 543.14C128.722 535.282 170.52 484.115 192.528 469.966C214.536 455.817 140.136 563.27 125.212 569.356C110.288 575.441 118.894 550.998 123.808 543.14Z" fill="white" stroke="#E3E0E0"/>
<path d="M357.198 454.543C347.945 454.025 282.038 458.653 257.785 468.469C233.532 478.284 364.224 479.493 377.803 470.813C391.383 462.132 366.452 455.062 357.198 454.543Z" fill="white" stroke="#E3E0E0"/>
<path d="M95.9903 511.744C103.645 506.518 162.463 476.427 188.3 472.299C214.136 468.171 102.867 536.735 86.7556 536.319C70.6442 535.904 88.3358 516.969 95.9903 511.744Z" fill="white" stroke="#E3E0E0"/>
<path d="M314.628 373.243C306.182 383.553 244.691 445.588 221.14 467.545C197.588 489.502 320.511 349.848 332.533 337.256C344.556 324.665 323.073 362.933 314.628 373.243Z" fill="white" stroke="#E3E0E0"/>
<path d="M312.236 441.217C301.262 443.685 252.507 447.902 227.843 465.978C203.179 484.055 370.953 440.902 383.595 427.473C396.237 414.044 323.209 438.749 312.236 441.217Z" fill="white" stroke="#E3E0E0"/>
<path d="M120.885 469.543C130.197 467.382 167.409 450.92 196.059 458.794C224.708 466.667 79.0043 494.208 61.7539 485.942C44.5036 477.675 111.573 471.705 120.885 469.543Z" fill="white" stroke="#E3E0E0"/>
<path d="M333.126 522.717C325.27 516.336 264.738 477.93 238.003 470.665C211.267 463.401 325.588 548.354 342.309 549.725C359.029 551.096 340.982 529.099 333.126 522.717Z" fill="white" stroke="#E3E0E0"/>
<path d="M277.62 357.152C271.182 364.962 232.341 425.215 224.884 451.898C217.427 478.581 303.202 364.874 304.693 348.164C306.184 331.454 284.058 349.342 277.62 357.152Z" fill="white" stroke="#E3E0E0"/>
<path d="M127.599 554.491C133.389 546.189 180.97 492.569 204.663 478.209C228.355 463.848 141.919 577.052 126.226 582.984C110.533 588.917 121.809 562.793 127.599 554.491Z" fill="white" stroke="#E3E0E0"/>
<path d="M219.966 360.814C218.774 370.756 216.668 440.564 222.118 465.271C227.568 489.978 239.713 350.295 234.218 336.847C228.723 323.398 221.158 350.872 219.966 360.814Z" fill="white" stroke="#E3E0E0"/>
<path d="M148.932 400.867C159.972 405.189 233.565 457.632 233.565 457.632C235.458 458.488 190.306 439.607 174.508 434.397C158.71 429.186 97.2123 415.945 96.552 402.655C95.8918 389.365 137.892 396.545 148.932 400.867Z" fill="white" stroke="#E3E0E0"/>
<path d="M231.107 580.672C232.732 572.572 221.619 510.769 221.619 510.769C221.815 509.351 216.028 542.785 213.006 554.129C209.984 565.472 193.191 607.839 202.402 611.636C211.614 615.432 229.481 588.772 231.107 580.672Z" fill="white" stroke="#E3E0E0"/>
<path d="M211.501 565.2C215.482 557.961 223.425 495.671 223.425 495.671C224.037 494.377 208.485 524.534 202.199 534.448C195.913 544.362 167.181 579.739 174.829 586.124C182.477 592.51 207.52 572.439 211.501 565.2Z" fill="white" stroke="#E3E0E0"/>
<path d="M292.788 425.677C285.823 430.121 241.384 472.634 241.384 472.634C240.226 473.475 268.334 454.468 278.604 448.782C288.874 443.096 357.851 410.64 354.201 401.369C350.552 392.099 299.752 421.234 292.788 425.677Z" fill="white" stroke="#E3E0E0"/>
<path d="M187.215 523.899C191.598 516.896 233.724 472.09 233.724 472.09C234.555 470.925 215.792 499.197 210.196 509.515C204.599 519.834 172.742 589.09 163.44 585.521C154.138 581.952 182.831 530.902 187.215 523.899Z" fill="white" stroke="#E3E0E0"/>
<path d="M233.884 371.394C231.538 379.315 218.274 429.787 218.274 429.787C217.951 431.182 238.412 398.646 242.44 387.62C246.468 376.594 255.301 335.661 246.467 331.053C237.634 326.444 236.23 363.472 233.884 371.394Z" fill="white" stroke="#E3E0E0"/>
<path d="M285.617 524.957C280.054 518.849 243.737 481.373 243.737 481.373C242.711 480.375 259.956 514.723 267.305 523.877C274.654 533.031 305.103 561.778 313.618 556.606C322.134 551.434 291.18 531.065 285.617 524.957Z" fill="white" stroke="#E3E0E0"/>
<path d="M172.384 536.669C176.623 529.578 204.771 485.634 204.771 485.634C205.578 484.452 195.501 521.541 190.117 531.973C184.733 542.404 160.602 576.627 151.229 573.25C141.855 569.872 168.146 543.76 172.384 536.669Z" fill="white" stroke="#E3E0E0"/>
<path d="M244.712 509.421C223.264 521.252 197.44 514.878 186.867 495.711C176.295 476.544 184.678 451.301 206.127 439.47C227.575 427.639 253.398 434.014 263.97 453.18C274.543 472.347 266.16 497.59 244.712 509.421Z" fill="#E2D201" stroke="#BDB43A" stroke-width="4"/>
<path d="M461.5 1263L620.5 975" stroke="#1C2704" stroke-width="2"/>
<path d="M282.309 1151.09L283.147 1150.54L282.309 1151.09ZM242.571 1098.35L243.541 1098.1L242.571 1098.35ZM237.499 1010.96C237.475 1010.4 237.008 1009.98 236.457 1010C235.905 1010.02 235.477 1010.49 235.501 1011.04L237.499 1010.96ZM261.869 1125L261.112 1125.65L261.869 1125ZM337.5 1267C338.436 1266.65 338.436 1266.65 338.436 1266.65C338.435 1266.65 338.435 1266.65 338.435 1266.64C338.434 1266.64 338.432 1266.64 338.431 1266.63C338.427 1266.62 338.422 1266.61 338.415 1266.59C338.402 1266.56 338.381 1266.5 338.355 1266.43C338.301 1266.29 338.221 1266.08 338.115 1265.8C337.904 1265.25 337.592 1264.43 337.184 1263.38C336.369 1261.28 335.175 1258.22 333.656 1254.43C330.618 1246.84 326.283 1236.28 321.09 1224.4C310.712 1200.67 296.887 1171.63 283.147 1150.54L282.309 1151.09L281.471 1151.63C295.117 1172.57 308.887 1201.49 319.258 1225.2C324.44 1237.05 328.767 1247.59 331.799 1255.17C333.315 1258.96 334.507 1262 335.319 1264.1C335.725 1265.15 336.037 1265.97 336.247 1266.52C336.352 1266.79 336.431 1267 336.484 1267.14C336.511 1267.21 336.531 1267.26 336.544 1267.3C336.551 1267.32 336.556 1267.33 336.559 1267.34C336.561 1267.34 336.562 1267.35 336.563 1267.35C336.563 1267.35 336.564 1267.35 336.564 1267.35C336.564 1267.35 336.564 1267.35 337.5 1267ZM242.571 1098.35L243.541 1098.1C242.876 1095.46 242.156 1088.72 241.455 1079.98C240.757 1071.29 240.085 1060.73 239.499 1050.5C238.913 1040.27 238.413 1030.38 238.059 1023.05C237.883 1019.39 237.743 1016.37 237.647 1014.26C237.599 1013.2 237.562 1012.38 237.537 1011.82C237.524 1011.54 237.515 1011.32 237.509 1011.18C237.505 1011.1 237.503 1011.05 237.501 1011.01C237.501 1010.99 237.5 1010.98 237.5 1010.97C237.499 1010.97 237.499 1010.96 237.499 1010.96C237.499 1010.96 237.499 1010.96 237.499 1010.96C237.499 1010.96 237.499 1010.96 236.5 1011C235.501 1011.04 235.501 1011.04 235.501 1011.04C235.501 1011.04 235.501 1011.05 235.501 1011.05C235.501 1011.05 235.501 1011.05 235.502 1011.06C235.502 1011.07 235.503 1011.08 235.503 1011.1C235.505 1011.14 235.507 1011.19 235.511 1011.26C235.517 1011.41 235.526 1011.62 235.539 1011.9C235.564 1012.47 235.601 1013.29 235.649 1014.35C235.745 1016.46 235.885 1019.48 236.062 1023.15C236.415 1030.48 236.916 1040.38 237.502 1050.61C238.089 1060.85 238.762 1071.43 239.461 1080.14C240.157 1088.82 240.886 1095.75 241.601 1098.59L242.571 1098.35ZM282.309 1151.09L283.147 1150.54C277.142 1141.33 269.553 1132.39 262.627 1124.35L261.869 1125L261.112 1125.65C268.045 1133.7 275.55 1142.54 281.471 1151.63L282.309 1151.09ZM261.869 1125L262.627 1124.35C257.904 1118.86 253.501 1113.81 250.076 1109.34C246.627 1104.83 244.281 1101.05 243.541 1098.1L242.571 1098.35L241.601 1098.59C242.452 1101.98 245.041 1106.05 248.488 1110.55C251.957 1115.09 256.409 1120.19 261.112 1125.65L261.869 1125ZM261.869 1125H262.869V1090H261.869H260.869V1125H261.869Z" fill="#1C2704"/>
<path d="M242 1095.5L218 1085M308.5 1199.5L273.5 1170.5" stroke="#1C2704" stroke-width="2"/>
<path d="M533.333 1171.72C523.033 1171.72 461.238 1095.5 420.865 1100.04C380.493 1104.57 396.971 1140.42 378.433 1181.93C378.433 1181.93 392.44 1070.09 396.971 1066.92C401.503 1063.74 417.982 1080.98 420.865 1076.9C423.749 1072.82 449.291 1060.11 452.175 1066.92C455.059 1073.72 448.055 1073.72 452.175 1076.9C456.295 1080.08 483.897 1053.31 487.192 1060.11C490.488 1066.92 499.139 1107.75 505.731 1100.04C512.322 1092.32 512.322 1068.73 518.09 1076.9C523.857 1085.07 527.153 1110.47 533.333 1108.2C539.512 1105.94 565.054 1108.2 569.586 1108.2C574.117 1108.2 551.459 1132.25 558.051 1130.44C564.642 1128.62 585.653 1124.08 593.068 1122.27C600.483 1120.45 617.786 1146.31 613.254 1150.85C608.723 1155.39 588.536 1150.85 585.653 1150.85C582.769 1150.85 596.776 1166.28 593.068 1171.72C589.36 1177.17 576.177 1165.37 578.237 1171.72C580.297 1178.07 585.653 1181.93 578.237 1190.78C570.822 1199.62 543.632 1150.85 533.333 1150.85C523.033 1150.85 543.632 1171.72 533.333 1171.72Z" fill="#3B5109"/>
<path d="M336 1263.82C336 1267.45 365.25 1214.82 378.433 1181.93M378.433 1181.93C396.971 1140.42 380.493 1104.57 420.865 1100.04C461.238 1095.5 523.033 1171.72 533.333 1171.72C543.632 1171.72 523.033 1150.85 533.333 1150.85C543.632 1150.85 570.822 1199.62 578.237 1190.78C585.653 1181.93 580.297 1178.07 578.237 1171.72C576.177 1165.37 589.36 1177.17 593.068 1171.72C596.776 1166.28 582.769 1150.85 585.653 1150.85C588.536 1150.85 608.723 1155.39 613.254 1150.85C617.786 1146.31 600.483 1120.45 593.068 1122.27C585.653 1124.08 564.642 1128.62 558.051 1130.44C551.459 1132.25 574.117 1108.2 569.586 1108.2C565.054 1108.2 539.512 1105.94 533.333 1108.2C527.153 1110.47 523.857 1085.07 518.09 1076.9C512.322 1068.73 512.322 1092.32 505.731 1100.04C499.139 1107.75 490.488 1066.92 487.192 1060.11C483.897 1053.31 456.295 1080.08 452.175 1076.9C448.055 1073.72 455.059 1073.72 452.175 1066.92C449.291 1060.11 423.749 1072.82 420.865 1076.9C417.982 1080.98 401.503 1063.74 396.971 1066.92C392.44 1070.09 378.433 1181.93 378.433 1181.93Z" stroke="#3B5109" stroke-width="4"/>
<path d="M381 1179C381.855 1182.42 388.962 1092.39 399.353 1088.51C409.743 1084.62 434.435 1093.89 460 1100.31M568.5 1152.5C568.5 1152.5 551.134 1142 533.5 1131.59M460 1100.31C478.072 1104.84 494.669 1109.71 501 1113C501.381 1113.2 501.786 1113.41 502.212 1113.64M460 1100.31L482 1083.5M502.212 1113.64L523 1152.5M502.212 1113.64C509.013 1117.25 521.32 1124.4 533.5 1131.59M533.5 1131.59L592 1138.5" stroke="#1C2704" stroke-width="2"/>
</svg>
